<svg xmlns="http://www.w3.org/2000/svg" xmlns:xlink="http://www.w3.org/1999/xlink" width="37" height="37" viewBox="0 0 37 37">
  <defs>
    <style>
      .cls-1 {
        fill: #fff;
        fill-rule: evenodd;
        filter: url(#filter);
      }
    </style>
    <filter id="filter" x="1286" y="243" width="37" height="37" filterUnits="userSpaceOnUse">
      <feFlood result="flood" flood-color="#ff7901"/>
      <feComposite result="composite" operator="in" in2="SourceGraphic"/>
      <feBlend result="blend" in2="SourceGraphic"/>
    </filter>
  </defs>
  <path class="cls-1" d="M1321.77,279.994h-34.54a1.237,1.237,0,0,1-1.23-1.247V254.432a1.238,1.238,0,0,1,1.23-1.245H1290a5.642,5.642,0,0,1-1.88-6.8,5.524,5.524,0,0,1,7.3-2.922c1.36,0.6,3.55,3,5.44,5.305a3.693,3.693,0,0,1,7.3.151c1.86-2.288,4-4.653,5.34-5.244a5.434,5.434,0,0,1,7.2,2.913,5.673,5.673,0,0,1-1.64,6.6h2.71a1.238,1.238,0,0,1,1.23,1.245v24.315A1.237,1.237,0,0,1,1321.77,279.994Zm-16.85-26.846a2.84,2.84,0,0,1-.42.039c-0.08,0-.16-0.007-0.24-0.012,0,0,.01.008,0.01,0.012h0.62C1304.9,253.174,1304.91,253.163,1304.92,253.148Zm3.28,1.284h-7.4v16.833l3.72-3.117,3.68,3.117V254.432Zm-13.02-9.716a4.445,4.445,0,0,0-5.93,2.162,4.524,4.524,0,0,0,2.5,5.851,9.985,9.985,0,0,0,3.22.458h1.81a31.937,31.937,0,0,0,5.75-.51C1302.42,252.625,1297.49,245.724,1295.18,244.716Zm9.32,2.232a2.481,2.481,0,0,0-2.47,2.5,2.4,2.4,0,0,0,.28,1.128q0.3,0.387.57,0.745a2.431,2.431,0,0,0,1.62.626A2.5,2.5,0,0,0,1304.5,246.948Zm12.61,5.96a4.528,4.528,0,0,0,2.47-5.829,4.362,4.362,0,0,0-5.85-2.154c-2.28,1-7.14,7.882-7.25,7.933a11,11,0,0,0,2.43.329h7.16A4.462,4.462,0,0,0,1317.11,252.908Zm4.66,2.15a0.624,0.624,0,0,0-.62-0.626h-7.09c-0.21.005-.41,0.005-0.62,0h-4.01v19.327l-4.95-4.363-4.91,4.363V254.432h-11.72a0.624,0.624,0,0,0-.62.626v23.065a0.623,0.623,0,0,0,.62.624h33.3a0.623,0.623,0,0,0,.62-0.624V255.058Z" transform="translate(-1286 -243)"/>
</svg>
