<svg xmlns="http://www.w3.org/2000/svg" width="23" height="23" viewBox="0 0 23 23">
  <defs>
    <style>
      .cls-1 {
        fill: #fff;
        fill-rule: evenodd;
      }
    </style>
  </defs>
  <path class="cls-1" d="M1434.63,116a4.675,4.675,0,0,1-4.52,1.208l-4.59,4.594h0l-3.26,3.261a4.748,4.748,0,0,1-6.6,5.5l0.36-.364,0.24-.233,1.44-1.442,0.55-.558a0.389,0.389,0,0,0,.01-0.555l-1.38-1.381a0.4,0.4,0,0,0-.56,0l-0.28.278-1.82,1.827-0.41.407-0.17.169a4.744,4.744,0,0,1,5.73-6.832l3.11-3.116h0l4.45-4.45a4.675,4.675,0,0,1,6.76-5.662l-0.17.168-0.4.4-1.81,1.806-0.27.276a0.4,0.4,0,0,0,0,.553l1.38,1.381a0.387,0.387,0,0,0,.55,0l0.55-.552,1.43-1.426,0.23-.232,0.36-.359A4.69,4.69,0,0,1,1434.63,116Z" transform="translate(-1413 -108)"/>
</svg>
